<svg xmlns="http://www.w3.org/2000/svg" width="32" height="32" viewBox="0 0 24 24" fill="none">
  <defs>
    <linearGradient id="grad1" x1="0%" y1="0%" x2="100%" y2="100%">
      <stop offset="0%" stop-color="#6366f1"/>
      <stop offset="100%" stop-color="#4f46e5"/>
    </linearGradient>
  </defs>
  <path d="M3 18V12C3 7.02944 7.02944 3 12 3C16.9706 3 21 7.02944 21 12V18" stroke="url(#grad1)" stroke-width="2" stroke-linecap="round"/>
  <path d="M21 19C21 20.1046 20.1046 21 19 21H18C16.8954 21 16 20.1046 16 19V16C16 14.8954 16.8954 14 18 14H21V19Z" fill="url(#grad1)"/>
  <path d="M3 19C3 20.1046 3.89543 21 5 21H6C7.10457 21 8 20.1046 8 19V16C8 14.8954 7.10457 14 6 14H3V19Z" fill="url(#grad1)"/>
</svg>
